<svg xmlns="http://www.w3.org/2000/svg" width="24" height="39" viewBox="0 0 24 39"><defs><clipPath id="qb56a"><path fill="#fff" d="M12 0c6.627 0 12 5.372 12 12v15c0 6.627-5.373 12-12 12-6.628 0-12-5.373-12-12V12C0 5.372 5.372 0 12 0z"/></clipPath><clipPath id="qb56b"><path fill="#fff" d="M11 8.998h2v8h-2z"/></clipPath></defs><g><g opacity="1"><path fill="none" stroke="#fff" stroke-miterlimit="20" stroke-width="4" d="M12 0c6.627 0 12 5.372 12 12v15c0 6.627-5.373 12-12 12-6.628 0-12-5.373-12-12V12C0 5.372 5.372 0 12 0z" clip-path="url(&quot;#qb56a&quot;)"/></g><g opacity="1"><path fill="none" stroke="#fff" stroke-miterlimit="20" stroke-width="4" d="M11 8.998v0h2v8h-2v0z" clip-path="url(&quot;#qb56b&quot;)"/></g></g></svg>